<svg width="320" height="372" viewBox="0 0 320 372" fill="none" xmlns="http://www.w3.org/2000/svg">
<path d="M192.678 28.9578C195.917 30.2427 195.917 30.2427 198.644 34.3543C198.708 37.2721 198.708 37.2721 198.303 40.6074C198.184 41.6834 198.064 42.7593 197.941 43.8678C197.573 46.2025 197.17 48.5348 196.636 50.8367C194.44 60.499 194.129 69.8164 194.085 79.7002C194.055 82.2069 194.055 82.2069 194.024 84.7643C193.94 91.864 193.885 98.9638 193.828 106.064C193.782 111.267 193.721 116.47 193.658 121.673C193.651 123.281 193.644 124.888 193.637 126.545C193.618 128.036 193.6 129.528 193.581 131.066C193.571 132.376 193.561 133.686 193.551 135.035C193.177 138.638 192.284 140.903 190.463 143.998C189.113 143.546 187.763 143.094 186.372 142.628C186.372 141.723 186.372 140.818 186.372 139.886C185.303 140.141 184.235 140.395 183.134 140.657C179.554 141.257 179.554 141.257 176.827 139.886C176.827 140.791 176.827 141.696 176.827 142.628C175.591 142.599 174.355 142.57 173.081 142.541C168.415 142.446 163.75 142.378 159.084 142.326C157.079 142.299 155.075 142.262 153.07 142.214C128.835 141.649 110.532 148.584 92.7295 165.354C77.8443 180.919 71.1849 200.19 71.1469 221.525C71.5773 238.171 76.0367 257.055 87.7601 269.323C89.5604 271.459 89.5604 271.459 89.5604 275.571C90.3355 275.917 91.1107 276.263 91.9093 276.62C95.4115 278.528 98.0611 280.824 101.065 283.451C116.894 296.377 133.718 300.738 153.647 300.412C155.094 300.4 156.54 300.387 158.031 300.374C161.569 300.342 165.107 300.297 168.646 300.241C167.296 300.693 165.946 301.145 164.555 301.611C165.258 302.601 165.961 303.59 166.686 304.609C168.646 308.464 168.646 308.464 168.497 311.644C166.911 316.44 164.129 319.529 160.72 323.112C159.72 324.181 159.72 324.181 158.699 325.273C148.45 336.015 137.154 345.06 124.475 352.766C119.793 355.792 115.643 359.332 111.473 363.029C108.65 364.656 108.65 364.656 105.316 364.367C104.166 364.01 103.017 363.653 101.832 363.286C100.735 362.957 99.6387 362.629 98.5086 362.29C82.3358 356.591 68.3727 348.565 55.4718 337.245C54.3363 336.27 53.2008 335.295 52.0309 334.29C33.0658 317.632 16.9998 297.199 9.11125 272.83C8.5813 271.473 8.5813 271.473 8.04065 270.089C-5.13079 234.962 -0.880964 194.818 11.8383 160.445C12.7383 160.445 13.6382 160.445 14.5654 160.445C14.6955 159.259 14.8256 158.074 14.9596 156.852C18.1702 141.515 31.6638 127.924 41.8363 116.587C42.6624 115.658 43.4885 114.729 44.3397 113.771C51.2877 106.379 59.5023 100.503 67.7437 94.6584C68.7754 93.9235 69.8072 93.1885 70.8702 92.4313C78.3582 87.5291 86.4358 84.1007 94.6737 80.696C95.7608 80.2391 96.8479 79.7823 97.968 79.3117C115.434 72.3387 132.217 70.7653 150.749 71.1021C152.765 71.1228 154.78 71.1416 156.795 71.1583C161.655 71.2029 166.514 71.2735 171.373 71.3591C171.43 69.9279 171.43 69.9279 171.489 68.4678C172.045 59.4279 173.642 52.6516 177.935 44.7191C178.638 43.3212 178.638 43.3212 179.355 41.895C186.142 28.8013 186.142 28.8013 192.678 28.9578Z" fill="#777777"/>
<path d="M307.558 0.00622932C309.356 0.0155046 309.356 0.0155046 311.19 0.0249673C314.127 0.0410092 317.064 0.0655868 320 0.0918886C319.445 0.734754 318.89 1.37762 318.318 2.03997C317.587 2.89175 316.855 3.74353 316.101 4.62112C315.378 5.46186 314.654 6.3026 313.908 7.16881C309.37 12.6357 306.064 18.0959 303.638 24.7617C302.963 26.2317 302.288 27.7016 301.592 29.216C293.93 47.3804 295.181 68.4463 295.201 87.8069C295.2 88.8202 295.199 89.8335 295.198 90.8774C295.199 104.455 295.71 117.87 296.82 131.407C298.239 149.446 298.529 167.452 298.592 185.543C298.603 188.68 298.622 191.817 298.648 194.954C298.833 219.868 298.803 246.095 291.366 270.09C291.163 272.026 291.012 273.969 290.94 275.915C290.324 282.609 287.814 287.976 284.894 293.967C283.163 297.412 283.163 297.412 281.949 300.761C271.783 325.248 253.9 344.071 230.006 355.064C228.843 355.641 227.679 356.219 226.48 356.814C203.13 368.136 177.97 372.437 152.284 371.51C154.075 366.111 157.51 364.186 161.914 360.974C189.354 340.261 210.359 309.105 219.098 275.572C219.564 274.069 220.029 272.565 220.509 271.016C220.972 269.495 221.434 267.974 221.91 266.406C222.376 264.903 222.842 263.399 223.322 261.85C226.632 248.984 226.132 235.098 226.145 221.906C226.149 220.23 226.154 218.554 226.158 216.827C226.165 213.298 226.168 209.769 226.168 206.24C226.171 200.93 226.196 195.619 226.222 190.309C226.257 174.412 226.033 158.778 224.189 142.983C222.759 130.302 222.681 117.627 222.683 104.876C222.677 100.739 222.627 96.6041 222.576 92.4673C222.445 69.8037 223.267 44.4896 238.187 26.1323C256.851 7.34374 281.579 -0.249388 307.558 0.00622932Z" fill="#777777"/>
<path d="M219.097 0.0915527C220.447 0.543834 221.797 0.996114 223.188 1.4621C222.48 2.20942 221.771 2.95675 221.041 3.72672C214.582 10.7476 209.673 17.5758 205.462 26.132C204.658 27.722 204.658 27.722 203.837 29.3442C202.543 31.9192 201.273 34.5065 200.008 37.0963C198.489 35.4003 198.489 35.4003 196.94 33.67C193.362 29.629 193.362 29.629 187.736 30.2436C189.377 26.826 191.082 23.8275 193.19 20.6498C194.09 20.6498 194.99 20.6498 195.917 20.6498C196.367 19.2929 196.817 17.9361 197.281 16.5381C201.579 12.5756 206.262 9.1033 210.916 5.57374C212.192 4.59321 212.192 4.59321 213.494 3.59287C215.603 2.06172 215.603 2.06172 219.097 0.0915527Z" fill="#777777"/>
<path d="M193.189 122.07C193.639 122.07 194.089 122.07 194.553 122.07C195.94 128.945 196.078 135.483 196.002 142.457C195.996 143.531 195.989 144.606 195.983 145.712C195.967 148.339 195.943 150.966 195.916 153.593C188.076 151.023 195.916 153.593 185.008 149.481C185.008 148.577 165.918 142.19 165.918 141.258C164.883 141.092 182.938 146.408 181.871 146.237C180.516 146.007 179.161 145.778 177.764 145.541C176.42 145.318 164.559 141.487 163.173 141.258C159.493 140.391 176.111 144.866 165.918 141.258C169.518 141.71 173.118 142.163 176.827 142.629C176.827 141.724 176.827 140.819 176.827 139.887C179.977 139.887 183.126 139.887 186.372 139.887C186.372 140.792 186.372 141.697 186.372 142.629C190.623 141.743 190.623 141.743 191.826 138.517C192.137 135.724 192.385 132.924 192.593 130.122C192.707 128.621 192.821 127.119 192.939 125.572C193.063 123.838 193.063 123.838 193.189 122.07Z" fill="#777777"/>
<path d="M178.952 295.413C178.502 297.674 173.371 303.993 172.908 306.323C172.008 306.323 142.952 306.775 142.025 306.775C141.435 308.429 173.51 304.636 172.908 306.323C171.374 309.835 164.636 319.607 161.909 320.977C157.818 314.467 164.556 304.696 164.556 301.612C163.349 301.634 163.349 301.634 162.117 301.656C158.47 301.713 154.823 301.748 151.176 301.783C149.91 301.806 148.643 301.829 147.338 301.853C146.121 301.862 144.904 301.871 143.65 301.88C142.529 301.894 141.408 301.908 140.253 301.923C137.285 301.612 137.285 301.612 133.194 298.871C134.875 298.903 136.555 298.935 138.286 298.967C151.77 299.143 164.749 298.253 178.952 295.413Z" fill="#777777"/>
</svg>
